<?xml version="1.0" encoding="UTF-8"?>
<!DOCTYPE svg PUBLIC "-//W3C//DTD SVG 1.1//EN" "http://www.w3.org/Graphics/SVG/1.1/DTD/svg11.dtd">
<svg xmlns="http://www.w3.org/2000/svg" version="1.1" width="500px" height="500px" style="shape-rendering:geometricPrecision; text-rendering:geometricPrecision; image-rendering:optimizeQuality; fill-rule:evenodd; clip-rule:evenodd" xmlns:xlink="http://www.w3.org/1999/xlink">
<g><path style="opacity:1" fill="#fefefe" d="M -0.5,-0.5 C 166.167,-0.5 332.833,-0.5 499.5,-0.5C 499.5,166.167 499.5,332.833 499.5,499.5C 332.833,499.5 166.167,499.5 -0.5,499.5C -0.5,332.833 -0.5,166.167 -0.5,-0.5 Z"/></g>
<g><path style="opacity:1" fill="#c29e76" d="M 263.5,119.5 C 266.119,119.232 268.619,119.565 271,120.5C 273.045,124.24 273.545,128.073 272.5,132C 270.112,132.865 268.612,132.032 268,129.5C 256.95,144.356 242.284,152.023 224,152.5C 223.316,151.216 223.483,150.049 224.5,149C 240.374,147.237 253.04,140.07 262.5,127.5C 261.009,126.756 259.509,126.09 258,125.5C 257.333,124.5 257.333,123.5 258,122.5C 259.876,121.391 261.709,120.391 263.5,119.5 Z"/></g>
<g><path style="opacity:1" fill="#c19c74" d="M 263.5,137.5 C 268.099,137.2 272.599,137.533 277,138.5C 277.821,150.742 277.654,162.909 276.5,175C 271.913,175.799 267.413,175.632 263,174.5C 262.188,162.091 262.355,149.758 263.5,137.5 Z"/></g>
<g><path style="opacity:1" fill="#fcfbf9" d="M 267.5,142.5 C 269.167,142.5 270.833,142.5 272.5,142.5C 272.5,151.833 272.5,161.167 272.5,170.5C 270.833,170.5 269.167,170.5 267.5,170.5C 267.5,161.167 267.5,151.833 267.5,142.5 Z"/></g>
<g><path style="opacity:1" fill="#c39f77" d="M 243.5,150.5 C 248.43,150.197 253.263,150.531 258,151.5C 258.814,159.413 258.647,167.246 257.5,175C 253.167,175.667 248.833,175.667 244.5,175C 244,174.5 243.5,174 243,173.5C 242.202,165.754 242.369,158.087 243.5,150.5 Z"/></g>
<g><path style="opacity:1" fill="#fcfaf8" d="M 248.5,155.5 C 250.167,155.5 251.833,155.5 253.5,155.5C 253.5,160.5 253.5,165.5 253.5,170.5C 251.833,170.5 250.167,170.5 248.5,170.5C 248.5,165.5 248.5,160.5 248.5,155.5 Z"/></g>
<g><path style="opacity:1" fill="#c19c74" d="M 224.5,159.5 C 229.099,159.2 233.599,159.533 238,160.5C 238.802,165.419 238.635,170.252 237.5,175C 232.913,175.799 228.413,175.632 224,174.5C 223.222,169.416 223.389,164.416 224.5,159.5 Z"/></g>
<g><path style="opacity:1" fill="#c19d74" d="M 204.5,162.5 C 209.175,162.794 213.675,163.794 218,165.5C 218.151,169.913 217.484,174.246 216,178.5C 214.644,179.38 213.144,179.714 211.5,179.5C 211.5,177.833 211.5,176.167 211.5,174.5C 188.456,186.18 174.29,204.847 169,230.5C 164.541,273.438 182.041,303.271 221.5,320C 222.995,323.841 221.661,325.174 217.5,324C 187.959,311.762 170.126,289.929 164,258.5C 159.712,218.574 174.878,188.741 209.5,169C 207.413,168.208 205.579,167.041 204,165.5C 203.53,164.423 203.697,163.423 204.5,162.5 Z"/></g>
<g><path style="opacity:1" fill="#fcfbfa" d="M 233.5,164.5 C 233.5,166.167 233.5,167.833 233.5,169.5C 231.833,169.5 230.167,169.5 228.5,169.5C 228.5,167.833 228.5,166.167 228.5,164.5C 230.167,164.5 231.833,164.5 233.5,164.5 Z"/></g>
<g><path style="opacity:1" fill="#c19d74" d="M 283.5,168.5 C 305.541,178.166 320.541,194.5 328.5,217.5C 347.713,222.593 353.546,234.259 346,252.5C 342.094,257.702 336.927,260.702 330.5,261.5C 324.426,289.079 308.759,309.246 283.5,322C 286.943,322.404 288.276,324.071 287.5,327C 282.757,327.523 278.257,326.69 274,324.5C 273.533,320.025 274.199,315.691 276,311.5C 277.356,310.62 278.856,310.286 280.5,310.5C 280.295,313.114 280.295,315.448 280.5,317.5C 303.674,306.152 318.674,287.986 325.5,263C 320.148,260.329 315.315,256.829 311,252.5C 303.794,236.949 307.961,225.616 323.5,218.5C 316.01,198.843 303.01,184.01 284.5,174C 282.365,172.444 282.032,170.611 283.5,168.5 Z"/></g>
<g><path style="opacity:1" fill="#dac4ac" d="M 233.5,164.5 C 234.461,166.265 234.795,168.265 234.5,170.5C 232.265,170.795 230.265,170.461 228.5,169.5C 230.167,169.5 231.833,169.5 233.5,169.5C 233.5,167.833 233.5,166.167 233.5,164.5 Z"/></g>
<g><path style="opacity:1" fill="#bf996f" d="M 224.5,178.5 C 241.837,178.333 259.17,178.5 276.5,179C 277.833,180.333 277.833,181.667 276.5,183C 259.167,183.667 241.833,183.667 224.5,183C 223.272,181.51 223.272,180.01 224.5,178.5 Z"/></g>
<g><path style="opacity:1" fill="#c29d75" d="M 232.5,191.5 C 236.488,193.966 240.155,197.132 243.5,201C 246.5,201.667 249.5,201.667 252.5,201C 255.574,197.631 258.74,194.465 262,191.5C 266.167,193.333 270.333,195.167 274.5,197C 275.307,202.083 275.807,207.25 276,212.5C 277.167,213.667 278.333,214.833 279.5,216C 284.864,216.171 290.198,216.671 295.5,217.5C 298.344,222.189 299.844,227.189 300,232.5C 297.297,235.538 294.297,238.205 291,240.5C 290.333,243.167 290.333,245.833 291,248.5C 294.576,251.737 297.743,255.237 300.5,259C 299.201,263.229 297.701,267.396 296,271.5C 290.917,272.307 285.75,272.807 280.5,273C 279.449,274.385 278.116,275.385 276.5,276C 275.854,281.448 275.188,286.948 274.5,292.5C 270.023,294.923 265.356,296.423 260.5,297C 257.462,294.297 254.795,291.297 252.5,288C 249.5,287.333 246.5,287.333 243.5,288C 240.833,291 238.167,294 235.5,297C 234.833,297.167 234.167,297.333 233.5,297.5C 229.395,296.281 225.395,294.781 221.5,293C 220.056,291.874 219.39,290.374 219.5,288.5C 221.918,282.233 220.584,277.066 215.5,273C 210.5,272.667 205.5,272.333 200.5,272C 198.492,267.651 196.492,263.318 194.5,259C 197.934,255.566 201.434,252.066 205,248.5C 205.667,245.833 205.667,243.167 205,240.5C 201.019,237.687 197.519,234.353 194.5,230.5C 196.333,226.167 198.167,221.833 200,217.5C 205.073,217.279 210.24,217.112 215.5,217C 216.667,215.833 217.833,214.667 219,213.5C 219.333,208.167 219.667,202.833 220,197.5C 224.303,195.597 228.47,193.597 232.5,191.5 Z"/></g>
<g><path style="opacity:1" fill="#fdfdfc" d="M 231.5,197.5 C 235.601,199.765 238.934,202.932 241.5,207C 245.5,207.667 249.5,207.667 253.5,207C 256.682,203.651 260.015,200.484 263.5,197.5C 265.642,198.601 267.808,199.601 270,200.5C 268.55,208.969 271.05,215.803 277.5,221C 282.489,221.499 287.489,221.666 292.5,221.5C 293.639,224.425 294.139,227.425 294,230.5C 291.333,233.167 288.667,235.833 286,238.5C 285.228,242.89 285.394,247.223 286.5,251.5C 289.651,254.15 292.651,256.984 295.5,260C 294.214,262.022 293.214,264.189 292.5,266.5C 287.533,267.329 282.533,267.829 277.5,268C 270.853,273.542 268.52,280.709 270.5,289.5C 267.575,290.639 264.575,291.139 261.5,291C 257.191,282.84 250.524,280.174 241.5,283C 238.833,285.667 236.167,288.333 233.5,291C 231.447,291.325 229.447,290.991 227.5,290C 225.928,284.691 224.761,279.191 224,273.5C 222.167,271.667 220.333,269.833 218.5,268C 213.467,267.829 208.467,267.329 203.5,266.5C 201.529,263.973 200.863,261.307 201.5,258.5C 207.072,255.303 210.072,250.636 210.5,244.5C 210.333,242.5 210.167,240.5 210,238.5C 206.958,235.289 203.791,232.289 200.5,229.5C 201.214,227.189 202.214,225.022 203.5,223C 208.167,222.667 212.833,222.333 217.5,222C 220,219.5 222.5,217 225,214.5C 225.333,209.833 225.667,205.167 226,200.5C 227.876,199.391 229.709,198.391 231.5,197.5 Z"/></g>
<g><path style="opacity:1" fill="#c19d75" d="M 239.5,216.5 C 257.376,213.848 269.542,220.848 276,237.5C 278.461,255.761 270.961,267.594 253.5,273C 229.369,273.533 218.202,261.7 220,237.5C 223.6,227.736 230.1,220.736 239.5,216.5 Z"/></g>
<g><path style="opacity:1" fill="#fcfaf8" d="M 241.5,221.5 C 265.312,221.136 274.479,232.469 269,255.5C 257.673,270.732 244.673,272.398 230,260.5C 219.819,243.219 223.652,230.219 241.5,221.5 Z"/></g>
<g><path style="opacity:1" fill="#fcfbfa" d="M 322.5,224.5 C 341.039,223.605 347.539,231.939 342,249.5C 333.626,258.382 324.96,258.715 316,250.5C 309.77,239.744 311.937,231.078 322.5,224.5 Z"/></g>
<g><path style="opacity:1" fill="#c19c73" d="M 243.5,225.5 C 255.573,224.897 259.573,230.23 255.5,241.5C 262.44,245.82 264.44,251.654 261.5,259C 252.5,259.667 243.5,259.667 234.5,259C 232.522,256.503 232.022,253.669 233,250.5C 234.738,246.759 237.238,243.592 240.5,241C 237.151,234.942 238.151,229.775 243.5,225.5 Z"/></g>
<g><path style="opacity:1" fill="#fbf8f6" d="M 245.5,230.5 C 252.444,230.272 254.11,233.106 250.5,239C 243.416,239.475 241.749,236.642 245.5,230.5 Z"/></g>
<g><path style="opacity:1" fill="#c09b72" d="M 334.5,233.5 C 337.68,233.176 338.847,234.51 338,237.5C 334.167,241.333 330.333,245.167 326.5,249C 325.5,249.667 324.5,249.667 323.5,249C 319.971,246.669 317.971,243.503 317.5,239.5C 320.785,239.269 323.285,240.603 325,243.5C 328.371,240.297 331.538,236.964 334.5,233.5 Z"/></g>
<g><path style="opacity:1" fill="#fcfbf9" d="M 244.5,244.5 C 251.472,243.982 256.138,246.982 258.5,253.5C 251.532,254.497 244.532,254.83 237.5,254.5C 238.276,250.06 240.61,246.727 244.5,244.5 Z"/></g>
<g><path style="opacity:1" fill="#c19d75" d="M 243.5,307.5 C 260.304,306.806 268.804,314.806 269,331.5C 265.055,345.433 255.888,351.266 241.5,349C 228.137,342.575 223.971,332.408 229,318.5C 232.321,312.66 237.154,308.993 243.5,307.5 Z"/></g>
<g><path style="opacity:1" fill="#fdfcfa" d="M 242.5,312.5 C 259.686,311.885 266.186,319.885 262,336.5C 253.716,346.346 244.716,347.012 235,338.5C 228.903,327.294 231.403,318.628 242.5,312.5 Z"/></g>
<g><path style="opacity:1" fill="#c19d75" d="M 245.5,316.5 C 247.144,316.286 248.644,316.62 250,317.5C 250.333,320.833 250.667,324.167 251,327.5C 253.111,329.102 254.611,331.102 255.5,333.5C 255.547,335 254.881,336 253.5,336.5C 250.567,335.07 248.067,333.07 246,330.5C 245.501,325.845 245.334,321.179 245.5,316.5 Z"/></g>
</svg>
