<?xml version="1.0" encoding="UTF-8"?>
<!DOCTYPE svg PUBLIC "-//W3C//DTD SVG 1.1//EN" "http://www.w3.org/Graphics/SVG/1.1/DTD/svg11.dtd">
<svg xmlns="http://www.w3.org/2000/svg" version="1.1" width="500px" height="500px" style="shape-rendering:geometricPrecision; text-rendering:geometricPrecision; image-rendering:optimizeQuality; fill-rule:evenodd; clip-rule:evenodd" xmlns:xlink="http://www.w3.org/1999/xlink">
<g><path style="opacity:1" fill="#fefefe" d="M -0.5,-0.5 C 166.167,-0.5 332.833,-0.5 499.5,-0.5C 499.5,166.167 499.5,332.833 499.5,499.5C 332.833,499.5 166.167,499.5 -0.5,499.5C -0.5,332.833 -0.5,166.167 -0.5,-0.5 Z"/></g>
<g><path style="opacity:1" fill="#c59a84" d="M 305.5,196.5 C 304.508,196.328 303.842,196.662 303.5,197.5C 285.839,176.327 263.173,167.827 235.5,172C 219.139,175.881 205.806,184.381 195.5,197.5C 195.158,196.662 194.492,196.328 193.5,196.5C 203.808,181.329 218.141,172.162 236.5,169C 237.16,163.418 238.326,157.918 240,152.5C 244.71,149.557 249.877,148.724 255.5,150C 257.333,151.167 258.833,152.667 260,154.5C 260.254,159.474 261.087,164.308 262.5,169C 280.861,172.163 295.195,181.33 305.5,196.5 Z"/></g>
<g><path style="opacity:1" fill="#fcfaf9" d="M 244.5,152.5 C 247.85,152.335 251.183,152.502 254.5,153C 255.333,153.833 256.167,154.667 257,155.5C 257.642,159.491 258.142,163.491 258.5,167.5C 252.5,167.5 246.5,167.5 240.5,167.5C 240.248,161.94 241.581,156.94 244.5,152.5 Z"/></g>
<g><path style="opacity:1" fill="#fefdfe" d="M 303.5,197.5 C 308.979,206.126 313.646,215.126 317.5,224.5C 319.86,233.867 322.193,243.2 324.5,252.5C 325.337,259.199 326.337,265.866 327.5,272.5C 327.5,281.5 327.5,290.5 327.5,299.5C 314.829,299.333 302.162,299.5 289.5,300C 288.167,301 288.167,302 289.5,303C 305.167,303.333 320.833,303.667 336.5,304C 345.881,307.805 348.381,314.305 344,323.5C 341.886,326.121 339.386,328.121 336.5,329.5C 278.5,329.5 220.5,329.5 162.5,329.5C 151.437,323.617 149.771,315.784 157.5,306C 158.833,305.333 160.167,304.667 161.5,304C 174.833,303.667 188.167,303.333 201.5,303C 202.833,302 202.833,301 201.5,300C 191.172,299.5 180.839,299.334 170.5,299.5C 170.448,290.482 170.782,281.482 171.5,272.5C 173.326,256.216 176.66,240.216 181.5,224.5C 185.354,215.126 190.021,206.126 195.5,197.5C 205.806,184.381 219.139,175.881 235.5,172C 263.173,167.827 285.839,176.327 303.5,197.5 Z"/></g>
<g><path style="opacity:1" fill="#c78b91" d="M 193.5,196.5 C 194.492,196.328 195.158,196.662 195.5,197.5C 190.021,206.126 185.354,215.126 181.5,224.5C 180.652,223.375 179.652,223.375 178.5,224.5C 181.962,214.236 186.962,204.903 193.5,196.5 Z"/></g>
<g><path style="opacity:1" fill="#c68b91" d="M 305.5,196.5 C 312.038,204.903 317.038,214.236 320.5,224.5C 319.348,223.375 318.348,223.375 317.5,224.5C 313.646,215.126 308.979,206.126 303.5,197.5C 303.842,196.662 304.508,196.328 305.5,196.5 Z"/></g>
<g><path style="opacity:1" fill="#ca86a0" d="M 320.5,224.5 C 323.77,233.58 326.103,242.913 327.5,252.5C 326.5,252.5 325.5,252.5 324.5,252.5C 322.193,243.2 319.86,233.867 317.5,224.5C 318.348,223.375 319.348,223.375 320.5,224.5 Z"/></g>
<g><path style="opacity:1" fill="#ca85a1" d="M 192.5,252.5 C 191.5,252.5 190.5,252.5 189.5,252.5C 188.387,251.054 188.22,249.387 189,247.5C 193.947,239.283 201.114,236.45 210.5,239C 217.01,240.672 220.343,244.839 220.5,251.5C 219.5,251.5 218.5,251.5 217.5,251.5C 215.812,244.299 211.145,240.966 203.5,241.5C 196.111,241.555 192.444,245.222 192.5,252.5 Z"/></g>
<g><path style="opacity:1" fill="#ca85a1" d="M 269.5,252.5 C 268.833,252.5 268.167,252.5 267.5,252.5C 260.515,242.25 251.181,239.417 239.5,244C 235.886,247.103 232.886,250.603 230.5,254.5C 229.391,254.557 228.391,254.89 227.5,255.5C 230.814,244.415 238.314,238.748 250,238.5C 259.709,238.919 266.209,243.586 269.5,252.5 Z"/></g>
<g><path style="opacity:1" fill="#c9829f" d="M 281.5,252.5 C 280.508,252.328 279.842,252.662 279.5,253.5C 278.315,243.666 282.982,238.666 293.5,238.5C 303.183,237.873 308.517,242.207 309.5,251.5C 308.5,251.5 307.5,251.5 306.5,251.5C 306.747,248.495 305.747,245.995 303.5,244C 295.369,239.743 288.202,240.91 282,247.5C 281.506,249.134 281.34,250.801 281.5,252.5 Z"/></g>
<g><path style="opacity:1" fill="#fefdfe" d="M 267.5,252.5 C 270.345,273.488 261.345,281.988 240.5,278C 232.231,272.382 228.897,264.549 230.5,254.5C 232.886,250.603 235.886,247.103 239.5,244C 251.181,239.417 260.515,242.25 267.5,252.5 Z"/></g>
<g><path style="opacity:1" fill="#ca82a5" d="M 181.5,224.5 C 176.66,240.216 173.326,256.216 171.5,272.5C 170.5,272.5 169.5,272.5 168.5,272.5C 169.523,255.994 172.856,239.994 178.5,224.5C 179.652,223.375 180.652,223.375 181.5,224.5 Z"/></g>
<g><path style="opacity:1" fill="#ca7ba9" d="M 281.5,252.5 C 283.372,255.529 286.039,257.695 289.5,259C 297.294,258.396 303.794,260.896 309,266.5C 311.197,275.604 307.697,281.104 298.5,283C 291.142,284.214 284.976,282.048 280,276.5C 277.892,273.862 278.059,271.528 280.5,269.5C 282.3,276.741 286.966,280.074 294.5,279.5C 300.941,280.291 304.941,277.625 306.5,271.5C 306.444,268.889 305.444,266.722 303.5,265C 297.939,263.262 292.272,261.929 286.5,261C 283.261,259.264 280.927,256.764 279.5,253.5C 279.842,252.662 280.508,252.328 281.5,252.5 Z"/></g>
<g><path style="opacity:1" fill="#c97ba5" d="M 324.5,252.5 C 325.5,252.5 326.5,252.5 327.5,252.5C 328.577,260.115 329.577,267.781 330.5,275.5C 329.9,274.1 328.9,273.1 327.5,272.5C 326.337,265.866 325.337,259.199 324.5,252.5 Z"/></g>
<g><path style="opacity:1" fill="#cb7bab" d="M 267.5,252.5 C 268.167,252.5 268.833,252.5 269.5,252.5C 274.26,269.947 267.594,280.28 249.5,283.5C 233.639,280.964 226.306,271.63 227.5,255.5C 228.391,254.89 229.391,254.557 230.5,254.5C 228.897,264.549 232.231,272.382 240.5,278C 261.345,281.988 270.345,273.488 267.5,252.5 Z"/></g>
<g><path style="opacity:1" fill="#cc7dad" d="M 189.5,252.5 C 190.5,252.5 191.5,252.5 192.5,252.5C 193.914,255.56 196.247,257.726 199.5,259C 205.584,258.73 211.251,260.063 216.5,263C 222.103,269.04 221.769,274.707 215.5,280C 204.466,286.195 195.633,284.029 189,273.5C 188.075,270.866 188.909,269.699 191.5,270C 193.136,276.797 197.47,279.964 204.5,279.5C 209.955,280.022 214.122,278.022 217,273.5C 217.65,268.973 215.816,265.806 211.5,264C 206.476,263.081 201.476,262.081 196.5,261C 192.857,259.195 190.524,256.362 189.5,252.5 Z"/></g>
<g><path style="opacity:1" fill="#d792c2" d="M 168.5,274.5 C 168.5,283.167 168.5,291.833 168.5,300.5C 166.5,300.5 164.5,300.5 162.5,300.5C 163.919,299.549 165.585,299.216 167.5,299.5C 167.174,290.983 167.507,282.65 168.5,274.5 Z"/></g>
<g><path style="opacity:1" fill="#ce75b9" d="M 168.5,272.5 C 169.5,272.5 170.5,272.5 171.5,272.5C 170.782,281.482 170.448,290.482 170.5,299.5C 180.839,299.334 191.172,299.5 201.5,300C 202.833,301 202.833,302 201.5,303C 188.167,303.333 174.833,303.667 161.5,304C 160.167,304.667 158.833,305.333 157.5,306C 149.771,315.784 151.437,323.617 162.5,329.5C 160.901,329.232 159.568,329.566 158.5,330.5C 151.351,326.196 148.518,319.862 150,311.5C 152.507,305.819 156.674,302.152 162.5,300.5C 164.5,300.5 166.5,300.5 168.5,300.5C 168.5,291.833 168.5,283.167 168.5,274.5C 168.5,273.833 168.5,273.167 168.5,272.5 Z"/></g>
<g><path style="opacity:1" fill="#ce76ba" d="M 327.5,272.5 C 328.9,273.1 329.9,274.1 330.5,275.5C 330.334,283.507 330.5,291.507 331,299.5C 347.763,302.029 352.763,311.029 346,326.5C 344.568,328.439 342.735,329.772 340.5,330.5C 339.432,329.566 338.099,329.232 336.5,329.5C 339.386,328.121 341.886,326.121 344,323.5C 348.381,314.305 345.881,307.805 336.5,304C 320.833,303.667 305.167,303.333 289.5,303C 288.167,302 288.167,301 289.5,300C 302.162,299.5 314.829,299.333 327.5,299.5C 327.5,290.5 327.5,281.5 327.5,272.5 Z"/></g>
<g><path style="opacity:1" fill="#cc5fc0" d="M 162.5,329.5 C 220.5,329.5 278.5,329.5 336.5,329.5C 338.099,329.232 339.432,329.566 340.5,330.5C 339.527,330.987 338.527,331.487 337.5,332C 314.502,332.5 291.502,332.667 268.5,332.5C 265.683,346.761 257.017,352.261 242.5,349C 235.237,346.315 230.903,341.148 229.5,333.5C 206.841,332.667 184.174,332.167 161.5,332C 160.263,331.768 159.263,331.268 158.5,330.5C 159.568,329.566 160.901,329.232 162.5,329.5 Z"/></g>
<g><path style="opacity:1" fill="#fefcfe" d="M 233.5,332.5 C 244.167,332.5 254.833,332.5 265.5,332.5C 264.274,341.72 258.941,346.386 249.5,346.5C 240.086,346.416 234.753,341.749 233.5,332.5 Z"/></g>
</svg>
