<?xml version="1.0" encoding="UTF-8"?>
<!DOCTYPE svg PUBLIC "-//W3C//DTD SVG 1.1//EN" "http://www.w3.org/Graphics/SVG/1.1/DTD/svg11.dtd">
<svg xmlns="http://www.w3.org/2000/svg" version="1.1" width="500px" height="500px" style="shape-rendering:geometricPrecision; text-rendering:geometricPrecision; image-rendering:optimizeQuality; fill-rule:evenodd; clip-rule:evenodd" xmlns:xlink="http://www.w3.org/1999/xlink">
<g><path style="opacity:1" fill="#fefefe" d="M -0.5,-0.5 C 166.167,-0.5 332.833,-0.5 499.5,-0.5C 499.5,166.167 499.5,332.833 499.5,499.5C 332.833,499.5 166.167,499.5 -0.5,499.5C -0.5,332.833 -0.5,166.167 -0.5,-0.5 Z"/></g>
<g><path style="opacity:1" fill="#c6a47f" d="M 200.5,164.5 C 202.783,164.608 204.783,165.441 206.5,167C 213.97,173.468 221.136,180.302 228,187.5C 228.333,195.167 228.667,202.833 229,210.5C 238.788,219.322 248.288,228.488 257.5,238C 257,238.5 256.5,239 256,239.5C 246.863,231.364 238.03,222.864 229.5,214C 220.553,214.579 211.553,214.579 202.5,214C 193.495,206.174 185.829,197.34 179.5,187.5C 179.608,186.558 179.941,185.725 180.5,185C 185.721,183.768 191.054,183.101 196.5,183C 197.428,182.612 198.095,181.945 198.5,181C 196.686,175.09 197.352,169.59 200.5,164.5 Z"/></g>
<g><path style="opacity:1" fill="#fdfdfc" d="M 200.5,167.5 C 202.308,167.491 203.975,167.991 205.5,169C 212.031,175.865 218.864,182.365 226,188.5C 226.667,194.833 226.667,201.167 226,207.5C 217.363,199.864 209.03,191.864 201,183.5C 200.501,178.177 200.334,172.844 200.5,167.5 Z"/></g>
<g><path style="opacity:1" fill="#fdfdfc" d="M 182.5,185.5 C 188.509,185.334 194.509,185.501 200.5,186C 208.863,194.697 217.53,203.031 226.5,211C 218.5,211.667 210.5,211.667 202.5,211C 195.315,203.316 188.315,195.482 181.5,187.5C 181.863,186.817 182.196,186.15 182.5,185.5 Z"/></g>
<g><path style="opacity:1" fill="#c6a47f" d="M 247.5,200.5 C 270.637,198.169 286.137,207.836 294,229.5C 297.557,251.221 289.39,266.721 269.5,276C 250.366,281.622 234.866,276.455 223,260.5C 217.194,249.956 216.027,238.956 219.5,227.5C 217.235,240.711 220.069,252.711 228,263.5C 240.149,275.411 254.315,278.578 270.5,273C 287.849,264.136 295.016,249.97 292,230.5C 283.698,208.099 267.864,199.432 244.5,204.5C 243.479,203.998 243.312,203.332 244,202.5C 245.302,201.915 246.469,201.249 247.5,200.5 Z"/></g>
<g><path style="opacity:1" fill="#c5a37d" d="M 251.5,219.5 C 267.501,218.342 275.668,225.675 276,241.5C 274.474,250.03 269.641,255.863 261.5,259C 243.836,260.171 235.836,252.004 237.5,234.5C 237.57,250.073 245.237,257.573 260.5,257C 272.668,251.828 276.501,242.994 272,230.5C 266.738,223.371 259.572,220.205 250.5,221C 251.056,220.617 251.389,220.117 251.5,219.5 Z"/></g>
<g><path style="opacity:1" fill="#c6a47e" d="M 246.5,181.5 C 280.733,179.68 302.9,195.013 313,227.5C 316.536,262.933 301.369,285.767 267.5,296C 237.972,300.11 216.472,288.944 203,262.5C 197.738,248.937 197.238,235.27 201.5,221.5C 198.31,238.3 200.81,254.3 209,269.5C 231.092,296.985 257.592,302.151 288.5,285C 307.942,269.349 315.108,249.183 310,224.5C 299.956,196.721 280.123,183.221 250.5,184C 246.423,184.515 242.423,185.349 238.5,186.5C 237.226,185.641 237.392,184.974 239,184.5C 241.584,183.411 244.084,182.411 246.5,181.5 Z"/></g>
</svg>
