<svg width="149" height="175" viewBox="0 0 149 175" fill="none" xmlns="http://www.w3.org/2000/svg">
<path d="M71.01 2.79556C63.48 -1.56444 53.13 -0.974441 41.69 5.62556C18.69 18.9256 0 51.4956 0 78.3856C0 91.9156 4.74 101.386 12.37 105.816C14.14 106.816 21.06 110.816 21.06 110.816C20.7359 113.859 19.6844 116.779 17.9945 119.331C16.3045 121.882 14.0256 123.99 11.35 125.476C10.91 125.726 11.18 126.156 11.57 126.376L22.14 132.486C22.2826 132.571 22.4442 132.619 22.61 132.626C33.02 132.626 45.07 125.626 48.43 111.086C49.69 110.486 50.96 109.836 52.25 109.086C75.25 95.7955 93.94 63.2156 93.94 36.3356C93.94 22.7956 89.21 13.3356 81.58 8.87556L71.01 2.79556Z" fill="#4D5051"/>
<path d="M52.2501 11.7256C29.2501 25.0156 10.5601 57.5956 10.5601 84.4756C10.5601 102.726 19.1501 113.646 31.8701 114.646C31.3901 120.446 29.7001 126.966 21.8701 131.576C21.2501 131.946 22.06 132.636 22.58 132.636C32.99 132.636 45.0401 125.636 48.4001 111.096C49.6601 110.496 50.9301 109.846 52.2201 109.096C75.2201 95.8056 93.9101 63.2256 93.9101 36.3456C93.9101 9.46559 75.2701 -1.56441 52.2501 11.7256Z" fill="#616466"/>
<path d="M21.9 131.576C21.52 131.816 21.69 132.166 22.01 132.406L11.57 126.406C11.18 126.166 10.91 125.756 11.35 125.496C14.0313 124.007 16.3139 121.893 18.0043 119.334C19.6946 116.775 20.7428 113.846 21.06 110.796L22.21 111.476L23.27 112.096C25.9189 113.552 28.854 114.412 31.87 114.616C31.4 120.446 29.7 126.966 21.9 131.576Z" fill="#373839"/>
<path d="M47.8499 88.6855C46.7399 87.8955 46.1799 86.4755 46.1799 84.4255C46.2041 82.2897 46.7683 80.1947 47.8199 78.3355C48.775 76.4773 50.2295 74.9224 52.0199 73.8455C53.7199 72.8655 55.1166 72.7489 56.2099 73.4955C57.2999 74.2355 57.8499 75.6355 57.8499 77.6855C57.8175 79.8589 57.2435 81.9899 56.1799 83.8855C55.248 85.7627 53.8063 87.3396 52.0199 88.4355C50.3599 89.3855 48.9699 89.4755 47.8499 88.6855ZM46.36 34.3255L57.67 27.7955L55.7799 65.9155L48.2499 70.2655L46.36 34.3255Z" fill="#FAFAFA"/>
<path opacity="0.2" d="M57.8101 105.446C70.0901 96.4455 80.6801 82.1755 87.1601 66.8555C74.8801 75.8655 64.2901 90.1255 57.8101 105.446Z" fill="#121212"/>
<path d="M136.33 157.546C132.07 157.596 128.9 154.616 126.91 150.866C139.67 135.176 148.3 114.276 148.3 95.9955C148.3 82.4455 143.55 72.9255 135.9 68.5255L125.35 62.4455C117.82 58.0955 107.48 58.6956 96.05 65.2856C73.05 78.5856 54.36 111.156 54.36 138.046C54.36 151.576 59.09 161.046 66.72 165.496C68.5 166.496 75.51 170.556 77.24 171.566C84.78 175.956 95.15 175.376 106.61 168.756C109.679 166.969 112.592 164.929 115.32 162.656C123.06 168.786 132.5 162.106 136.24 158.906C136.74 158.486 136.8 157.546 136.33 157.546Z" fill="#E0E0E0"/>
<path d="M88.1599 173.796C74.2199 173.796 65.5699 162.446 65.5699 144.186C65.5699 117.546 84.1299 85.1856 106.93 71.9956C113.31 68.3156 119.41 66.4456 125.06 66.4456C138.99 66.4456 147.65 77.7856 147.65 96.0556C147.65 113.526 139.51 134.396 126.41 150.506L126.14 150.846L126.34 151.226C128.69 155.656 132.1 158.136 135.96 158.226C135.933 158.31 135.885 158.385 135.82 158.446C133.16 160.726 127.88 164.536 122.41 164.536C119.974 164.546 117.61 163.712 115.72 162.176L115.31 161.856L114.9 162.186C112.197 164.421 109.314 166.427 106.28 168.186C99.9099 171.876 93.8099 173.796 88.1599 173.796Z" fill="#FAFAFA"/>
<path d="M125.06 65.7955V67.0955C138.59 67.0955 147 78.1955 147 96.0455C147 113.386 138.92 134.096 125.91 150.096L125.36 150.766L125.77 151.526C127.93 155.606 130.97 158.116 134.46 158.746C131.69 160.956 127.1 163.906 122.41 163.906C120.12 163.916 117.896 163.132 116.12 161.686L115.3 161.036L114.49 161.706C111.816 163.937 108.963 165.943 105.96 167.706C99.68 171.326 93.69 173.166 88.16 173.166C74.63 173.166 66.22 162.066 66.22 144.166C66.22 117.736 84.63 85.6055 107.22 72.5355C113.5 68.9155 119.49 67.0755 125.02 67.0755V65.7955H125.06ZM125.02 65.7955C119.46 65.7955 113.2 67.6055 106.57 71.4355C83.57 84.7255 64.88 117.296 64.88 144.186C64.88 163.336 74.35 174.446 88.12 174.446C93.68 174.446 99.94 172.636 106.57 168.806C109.639 167.019 112.552 164.979 115.28 162.706C117.28 164.339 119.788 165.223 122.37 165.206C128.09 165.206 133.56 161.206 136.2 158.956C136.7 158.536 136.76 157.596 136.29 157.596H136.19C131.99 157.596 128.85 154.646 126.87 150.916C139.63 135.226 148.26 114.326 148.26 96.0455C148.26 76.8955 138.79 65.7955 125.02 65.7955V65.7955Z" fill="#44DBAE"/>
<path d="M104.47 124.646C105.683 121.735 107.076 118.903 108.64 116.166C109.718 114.287 110.699 112.354 111.58 110.376C112.187 109.019 112.51 107.552 112.53 106.066C112.53 104.066 111.93 102.836 110.73 102.356C109.53 101.876 107.95 102.226 105.96 103.356C103.992 104.51 102.27 106.039 100.89 107.856C99.3488 109.868 98.0905 112.082 97.1499 114.436L89.7999 112.926C91.4441 108.583 93.7736 104.531 96.7 100.926C99.5633 97.3869 103.055 94.407 107 92.1355C111.667 89.4689 115.403 88.6355 118.21 89.6355C121.017 90.6355 122.423 93.4955 122.43 98.2155C122.443 100.346 122.167 102.469 121.61 104.526C121.117 106.388 120.447 108.2 119.61 109.936C118.82 111.556 117.79 113.486 116.54 115.726C115.328 117.793 114.233 119.926 113.26 122.116C112.589 123.697 112.249 125.398 112.26 127.116L103.09 132.416C103.053 129.761 103.521 127.125 104.47 124.646V124.646ZM103.47 150.376C102.36 149.586 101.8 148.166 101.8 146.106C101.824 143.97 102.388 141.875 103.44 140.016C104.394 138.16 105.845 136.606 107.63 135.526C109.34 134.526 110.73 134.426 111.83 135.176C112.93 135.926 113.47 137.326 113.47 139.376C113.436 141.546 112.862 143.673 111.8 145.566C110.868 147.446 109.422 149.023 107.63 150.116C106.02 151.076 104.64 151.156 103.52 150.376H103.47Z" fill="#616466"/>
</svg>
